<svg version="1.2" xmlns="http://www.w3.org/2000/svg" viewBox="0 0 2000 500" width="2000"
    height="500"
    fill="currentColor">
    <style>
        path {
            fill: #000;
        }
        @media (prefers-color-scheme: dark) {
            path {
                fill: #fff;
            }
        }
        html[data-color-mode="dark"] path, {
            fill: #fff;
        }
      </style>
    <path
        d="m581.6 214.9c16.8 0 30.3 7.2 41.3 20.5l31.5-28.5c-17-21.3-43-33-75.3-33-55.5 0-96.2 37.7-96.2 91 0 53.3 40.7 91 96.2 91 32.3 0 58.3-11.7 75.3-33l-31.5-28.5c-11 13.3-24.5 20.5-41.3 20.5-28.7 0-48.7-20-48.7-50 0-30 20-50 48.7-50z" />
    <path
        d="m845 177.4l-60 101-61.5-101h-40.8v175.1h45.8v-90.3l44.7 73h22l45-75.5 0.5 92.8h45.6l-0.5-175.1z" />
    <path
        d="m1157.1 223.4c0-17.5 14.3-31.8 46.3-31.8 15.5 0 33 4.8 48 14.5l6.3-14.7c-14-9.8-34.5-15.5-54.3-15.5-44.5 0-64.5 22.2-64.5 48 0 64.8 107.8 35.3 107.8 83.3 0 17.2-14.3 31-47 31-23 0-45.3-9-57.8-21.3l-7.3 14.3c13.1 13.5 38.8 22.7 65.1 22.7 44.7 0 65.2-22 65.2-47.7 0-63.8-107.8-34.8-107.8-82.8z" />
    <path d="m1552.6 177.4l-80 175.1h19.2l69.8-155.9 69.8 155.9h19.5l-80.1-175.1z" />
    <path d="m1704.7 177.4h-18.6v175.1h116.6v-16.1h-98z" />
    <path d="m1963.9 193.4v-16h-124.2v175.1h123.8v-16.1h-105.3v-65h88.2v-15.7h-88.2v-62.3z" />
    <path
        d="m1010.3 177.4h-82.7v39.5h49.5 31.2c29.8 0 49.8 17.7 49.8 48 0 30.3-20 48-49.8 48h-31.2v-63.5h-49.5v103.1h82.7c58.1 0 97.8-33.8 97.8-87.6 0-53.8-39.8-87.5-97.8-87.5z" />
    <path
        d="m1381.7 192.9c25.5 0 47.9 12.2 61.4 30.9l12.4-12.4c-16.9-21.5-43.6-35.5-73.8-35.5-50.8 0-92.2 39.7-92.2 88.5 0 48.9 41.4 88.6 92.2 88.6 30.1 0 56.9-13.9 73.7-35.4l-12.4-12.4c-13.5 18.6-35.9 30.8-61.3 30.8-41.1 0-74.5-32-74.5-71.6 0-39.5 33.4-71.5 74.5-71.5z" />
    <path
        d="m320.5 101.4l-165.8 95.7v70.1l157.4-90.9 20.6 11.9v141.3l-174.3 100.6 60.5 34.9 182.9-105.6v-211.1z" />
    <path
        d="m283.2 240.5l-157.5 90.9-20.5-11.9v-141.3l174.2-100.6-60.5-34.9-182.8 105.6v211.1l81.2 46.9 165.9-95.7z" />
</svg>